<svg xmlns="http://www.w3.org/2000/svg" version="1.1" xmlns:xlink="http://www.w3.org/1999/xlink" xmlns:svgjs="http://svgjs.dev/svgjs" width="17.8096px" height="17.6942px"><svg xmlns="http://www.w3.org/2000/svg" viewBox="167.6866 198.2212 17.8096 17.6942" width="17.8096px" height="17.6942px"><g id="SvgjsG1009" transform="matrix(9.658080101013184, 0, 0, 9.658080101013184, 189.1179962158203, 199.93099975585938)"><path fill-rule="nonzero" style="" d="M -1.249 -0.177 C -1.134 -0.178 -1.021 -0.155 -0.916 -0.113 C -0.812 -0.07 -0.715 -0.007 -0.633 0.074 C -0.551 0.155 -0.487 0.251 -0.443 0.355 C -0.399 0.459 -0.376 0.572 -0.375 0.687 L -0.761 0.689 C -0.775 0.428 -0.985 0.22 -1.247 0.208 L -1.249 -0.177 Z" fill="#4e7d22" id="SvgjsPath1008"></path><path fill-rule="nonzero" style="" fill="#f4b400" d="M -1.345 1.655 C -1.461 1.656 -1.574 1.634 -1.678 1.591 C -1.783 1.548 -1.879 1.485 -1.961 1.404 C -2.043 1.323 -2.107 1.227 -2.151 1.123 C -2.195 1.019 -2.219 0.906 -2.219 0.791 L -1.832 0.788 C -1.825 0.913 -1.773 1.031 -1.684 1.119 C -1.595 1.209 -1.474 1.263 -1.348 1.268 L -1.345 1.655 Z" id="SvgjsPath1007"></path><path fill-rule="nonzero" style="fill: rgb(244, 79, 79);" d="M -0.762 0.783 C -0.773 1.044 -0.981 1.253 -1.242 1.268 L -1.239 1.655 C -0.999 1.653 -0.783 1.555 -0.626 1.397 C -0.47 1.239 -0.374 1.021 -0.375 0.781 L -0.762 0.783 Z" id="SvgjsPath1006"></path><path fill="#72a433" fill-rule="nonzero" style="" d="M -2.219 0.697 C -2.22 0.457 -2.124 0.239 -1.967 0.081 C -1.811 -0.078 -1.594 -0.176 -1.354 -0.177 L -1.352 0.208 C -1.613 0.222 -1.822 0.433 -1.833 0.694 L -2.219 0.697 Z" id="SvgjsPath1005"></path></g></svg><style>@media (prefers-color-scheme: light) { :root { filter: none; } }
@media (prefers-color-scheme: dark) { :root { filter: none; } }
</style></svg>